<?xml version="1.0" encoding="utf-8"?>
<svg xmlns="http://www.w3.org/2000/svg" height="512pt" version="1.1" viewBox="0 0 512 512" width="512pt">
<path d="M 0.00 0.00 L 512.00 0.00 L 512.00 512.00 L 0.00 512.00 L 0.00 0.00 Z" fill="transparent" opacity="1.00" stroke="transparent" stroke-width="0.25"/>
<path d="M 238.94 98.70 C 272.07 100.81 305.13 105.94 336.90 115.74 C 359.20 122.72 381.19 130.82 402.26 140.95 C 401.00 146.42 401.62 152.07 402.59 157.52 C 407.01 158.36 411.50 158.88 415.93 159.70 C 413.91 163.36 411.59 166.85 409.66 170.55 C 408.35 172.95 411.02 174.81 412.07 176.67 C 418.44 175.64 424.61 173.67 430.98 172.56 C 431.32 175.47 431.92 178.34 432.21 181.25 C 430.52 183.80 428.04 185.70 426.07 188.03 C 409.87 206.33 396.03 226.57 383.47 247.50 C 354.94 294.75 326.30 341.93 298.34 389.52 C 296.31 392.91 296.00 396.92 295.45 400.74 C 288.70 398.87 282.10 396.07 275.04 395.62 C 265.61 395.54 257.68 401.49 248.86 403.83 C 244.09 402.86 239.74 400.42 235.17 398.79 C 207.20 387.90 179.07 377.40 151.19 366.29 C 141.36 362.24 131.30 358.78 121.33 355.11 C 122.39 359.16 123.90 363.13 126.40 366.53 C 132.01 374.48 138.92 381.43 146.19 387.85 C 138.73 385.38 131.26 382.92 123.60 381.14 C 118.14 379.97 115.37 374.64 113.48 369.91 C 111.69 365.45 112.36 360.60 112.77 355.97 C 108.93 354.69 104.57 354.38 101.34 351.71 C 96.67 346.60 95.30 339.54 92.63 333.39 C 88.95 331.00 84.37 329.98 81.30 326.66 C 76.46 322.22 73.98 315.40 74.85 308.89 C 76.00 301.39 81.95 296.13 86.15 290.23 C 107.06 264.08 127.96 237.91 148.88 211.76 C 167.25 188.33 186.13 165.29 205.19 142.41 C 206.00 143.80 207.84 145.68 206.15 147.17 C 194.91 161.26 183.63 175.32 172.31 189.36 C 160.89 203.29 150.13 217.73 138.81 231.74 C 122.33 252.02 106.08 272.50 89.61 292.79 C 89.54 293.17 89.40 293.92 89.32 294.30 C 102.30 299.09 116.11 300.85 129.49 304.16 C 148.74 308.14 167.59 313.80 186.39 319.46 C 212.87 327.88 239.96 335.71 264.05 349.91 C 273.41 333.53 284.11 317.98 294.33 302.13 C 309.62 279.73 324.32 256.92 339.06 234.16 C 356.35 208.06 373.63 181.97 390.82 155.80 C 393.62 151.53 396.66 147.40 399.10 142.90 C 365.00 127.23 329.19 114.91 292.11 108.65 C 276.21 105.76 260.14 103.73 243.99 102.93 C 242.66 102.87 240.97 102.70 240.17 104.03 C 231.61 115.35 222.99 126.62 214.19 137.75 C 213.01 137.04 211.82 136.34 210.64 135.65 C 219.86 123.17 229.42 110.96 238.94 98.70 Z" fill="#050e2a" opacity="1.00" stroke="#050e2a" stroke-width="0.25"/>
<path d="M 209.21 137.73 C 211.62 140.72 214.32 143.51 217.60 145.54 C 223.88 149.79 231.76 150.59 238.15 154.61 C 246.07 159.33 252.62 166.95 254.51 176.14 C 255.65 182.03 256.40 188.17 255.08 194.09 C 261.16 186.14 266.64 177.76 272.44 169.60 C 275.16 165.90 278.19 162.44 280.78 158.63 C 278.15 155.85 275.22 153.37 272.75 150.43 C 277.22 150.20 281.59 151.18 286.02 151.50 C 288.71 149.96 290.60 147.21 293.60 146.07 C 293.00 148.41 292.13 150.66 291.10 152.83 C 291.27 157.29 292.37 161.62 292.77 166.05 C 290.28 163.91 287.96 161.60 285.64 159.28 C 277.74 170.82 268.88 181.69 261.52 193.60 C 261.50 194.22 261.47 195.45 261.45 196.06 C 259.98 198.30 257.92 200.17 256.89 202.73 C 264.22 195.70 275.11 193.48 284.95 194.74 C 293.70 195.92 303.04 198.03 309.53 204.45 C 316.04 211.19 321.02 219.66 322.73 228.95 C 315.21 225.42 307.89 220.31 299.22 220.42 C 298.39 220.78 297.65 221.28 297.00 221.89 C 292.65 217.16 285.93 216.17 280.43 213.31 C 273.36 210.32 265.13 206.63 257.53 209.78 C 253.29 211.58 251.06 215.90 249.05 219.77 C 259.52 213.43 273.07 216.03 282.31 223.38 C 276.27 222.37 270.56 218.72 264.23 220.14 C 260.26 220.47 257.38 223.30 254.50 225.72 C 252.39 225.65 250.17 223.69 248.18 225.16 C 245.29 227.20 243.11 230.08 241.05 232.93 C 236.55 239.75 232.10 246.66 228.64 254.08 C 226.66 258.46 225.27 263.37 226.17 268.19 C 226.84 272.53 229.76 276.02 230.91 280.20 C 228.37 278.38 225.98 276.37 223.49 274.49 C 221.21 274.34 218.82 273.97 216.61 274.75 C 212.12 276.74 208.70 280.37 204.73 283.15 C 205.16 278.01 206.68 272.37 204.36 267.49 C 202.10 263.09 196.58 263.55 192.54 262.22 C 196.15 258.68 201.52 259.20 205.97 257.51 C 209.88 256.48 212.95 253.69 215.72 250.88 C 223.20 242.87 230.18 234.33 235.86 224.94 C 237.58 222.01 238.88 218.33 237.53 215.01 C 236.40 213.04 234.79 211.37 233.92 209.25 C 237.71 210.46 242.01 212.05 243.04 216.41 C 244.26 213.75 245.80 210.99 245.35 207.95 C 244.97 204.10 242.16 200.95 238.80 199.28 C 231.20 195.41 222.95 192.97 214.62 191.23 C 215.74 190.45 216.88 189.69 218.03 188.94 C 212.06 185.97 205.51 184.97 199.07 183.65 C 205.40 178.47 213.58 175.34 221.79 175.37 C 212.22 165.58 208.50 151.12 209.21 137.73 Z" fill="#050e2a" opacity="1.00" stroke="#050e2a" stroke-width="0.25"/>
<path d="M 227.51 174.48 C 219.20 166.91 213.57 156.13 212.37 144.95 C 216.50 148.34 220.83 151.57 225.86 153.50 C 234.04 157.19 242.68 161.55 247.51 169.47 C 250.51 174.22 252.10 179.78 252.28 185.38 C 250.20 181.66 249.71 177.20 247.01 173.82 C 240.92 165.70 232.16 160.30 224.36 154.02 C 224.85 159.06 230.26 161.24 233.57 164.37 C 239.15 168.75 244.44 173.73 248.04 179.92 C 239.64 172.48 230.55 165.85 222.43 158.09 C 222.05 160.50 224.06 162.16 225.45 163.81 C 231.13 169.83 238.26 174.17 244.43 179.62 C 249.71 184.58 250.20 192.40 250.38 199.20 C 247.88 197.70 247.34 194.56 245.79 192.29 C 241.63 184.61 234.17 179.75 227.51 174.48 Z" fill="#fbfbfb" opacity="1.00" stroke="#fbfbfb" stroke-width="0.25"/>
<path d="M 399.32 147.42 C 399.59 147.52 400.12 147.73 400.39 147.83 L 399.03 148.28 C 398.96 151.73 399.32 155.16 400.02 158.54 C 399.47 158.78 398.37 159.26 397.82 159.50 C 393.98 165.42 390.12 171.32 386.12 177.13 C 382.74 182.80 378.87 188.14 375.02 193.48 C 382.62 184.78 388.83 175.00 395.66 165.71 C 397.35 163.46 398.55 160.61 401.29 159.40 C 401.23 160.04 401.13 161.31 401.08 161.95 C 388.97 179.22 375.92 195.84 364.29 213.45 C 348.06 238.52 332.24 263.86 315.80 288.79 C 308.12 300.78 299.72 312.29 292.37 324.48 C 286.22 334.07 280.40 343.87 274.22 353.44 C 270.89 357.93 268.32 363.01 264.29 366.95 C 262.74 362.65 262.95 357.54 265.24 353.53 C 274.80 336.32 285.79 319.98 296.70 303.61 C 306.90 288.69 316.67 273.48 326.69 258.43 C 335.60 243.85 345.31 229.79 354.69 215.51 C 369.64 192.87 384.73 170.31 399.32 147.42 Z" fill="#fbfbfb" opacity="1.00" stroke="#fbfbfb" stroke-width="0.25"/>
<path d="M 404.55 161.58 C 405.19 161.47 406.48 161.25 407.13 161.14 C 402.11 169.63 395.70 177.20 390.22 185.38 C 375.51 205.16 361.99 225.79 348.63 246.50 C 328.95 278.84 307.18 309.85 287.32 342.07 C 282.41 349.82 277.47 357.58 271.99 364.95 C 270.41 367.02 269.16 369.32 267.98 371.65 C 267.50 371.21 267.02 370.78 266.55 370.36 C 266.49 369.91 266.38 369.01 266.33 368.57 C 269.75 364.49 273.04 360.28 275.73 355.67 C 282.34 345.92 288.32 335.76 294.77 325.91 C 306.77 306.95 319.55 288.49 331.48 269.48 C 342.16 252.86 352.75 236.19 363.42 219.55 C 372.48 206.29 381.53 193.03 391.21 180.21 C 395.79 174.09 399.82 167.57 404.55 161.58 Z" fill="#fbfbfb" opacity="1.00" stroke="#fbfbfb" stroke-width="0.25"/>
<path d="M 278.84 178.91 C 290.52 171.27 305.47 170.25 318.79 173.43 C 328.67 175.52 337.22 181.45 347.25 183.03 C 338.28 187.14 329.91 192.84 320.23 195.24 C 313.98 196.79 307.40 197.07 301.05 196.03 C 294.29 194.39 287.74 192.03 281.05 190.14 C 274.45 188.03 267.83 192.79 262.58 195.26 C 262.66 194.86 262.82 194.05 262.90 193.64 C 267.60 188.14 272.62 182.73 278.84 178.91 Z" fill="#050e2a" opacity="1.00" stroke="#050e2a" stroke-width="0.25"/>
<path d="M 276.07 185.54 C 285.94 176.47 300.42 175.20 313.16 176.63 C 321.94 177.49 329.90 181.70 338.56 183.08 C 328.11 188.01 316.79 192.62 304.98 191.14 C 298.34 190.03 291.73 188.68 285.18 187.12 C 295.38 186.07 305.67 186.67 315.79 188.17 C 315.00 187.15 314.29 185.84 312.86 185.69 C 306.73 184.05 300.36 183.10 294.02 183.67 C 289.92 183.86 286.01 185.38 281.90 185.46 C 293.70 180.24 307.34 180.61 319.58 184.03 C 322.03 184.69 324.57 185.05 327.09 184.61 C 316.04 179.01 302.99 177.27 290.89 180.00 C 285.63 180.89 280.89 183.41 276.07 185.54 Z" fill="#fbfbfb" opacity="1.00" stroke="#fbfbfb" stroke-width="0.25"/>
<path d="M 205.78 181.87 C 210.94 178.76 217.29 177.69 223.19 178.78 C 232.26 181.92 239.85 189.19 243.78 197.90 C 237.19 193.54 230.05 189.21 221.89 189.01 C 221.31 188.35 220.74 187.68 220.16 187.02 C 215.32 185.44 210.57 183.58 205.78 181.87 Z" fill="#fbfbfb" opacity="1.00" stroke="#fbfbfb" stroke-width="0.25"/>
<path d="M 220.11 184.43 C 220.29 183.21 221.80 182.10 223.00 182.95 C 228.26 184.38 233.87 186.89 236.84 191.70 C 234.21 191.11 232.21 189.25 229.83 188.14 C 226.69 186.64 223.26 185.89 220.11 184.43 Z" fill="#050e2a" opacity="1.00" stroke="#050e2a" stroke-width="0.25"/>
<path d="M 268.79 200.02 C 281.60 196.19 296.18 199.09 306.66 207.38 C 312.45 211.09 314.99 217.71 317.70 223.70 C 311.89 219.80 305.04 216.80 297.90 218.10 C 298.40 217.09 298.92 216.09 299.44 215.09 C 297.79 212.91 296.42 210.51 294.57 208.50 C 291.62 205.83 288.01 204.05 284.45 202.36 C 283.91 201.41 283.38 200.46 282.82 199.53 L 281.74 201.57 C 277.43 201.14 273.13 200.39 268.79 200.02 Z" fill="#fbfbfb" opacity="1.00" stroke="#fbfbfb" stroke-width="0.25"/>
<path d="M 266.07 203.04 C 274.74 201.67 284.19 203.68 291.44 208.69 C 293.83 210.88 297.20 212.93 297.29 216.55 C 291.46 212.73 285.62 208.76 278.98 206.45 C 274.84 204.76 270.39 204.10 266.07 203.04 Z" fill="#fbfbfb" opacity="1.00" stroke="#fbfbfb" stroke-width="0.25"/>
<path d="M 294.41 202.28 C 301.57 206.37 307.68 212.21 313.02 218.43 C 306.87 216.37 302.73 211.14 297.91 207.12 C 296.47 205.75 294.43 204.54 294.41 202.28 Z" fill="#050e2a" opacity="1.00" stroke="#050e2a" stroke-width="0.25"/>
<path d="M 93.24 298.96 C 113.21 303.75 133.31 307.98 153.17 313.27 C 173.91 318.76 194.55 324.72 214.88 331.61 C 231.02 337.28 247.24 343.30 261.99 352.07 C 261.54 355.90 260.76 359.76 261.14 363.67 C 234.21 351.56 206.04 342.61 178.14 333.08 C 154.34 325.05 130.80 316.18 106.56 309.54 C 102.26 308.47 98.34 305.68 93.86 305.58 C 89.49 307.62 87.96 312.91 86.17 317.05 C 88.39 319.12 91.72 320.09 93.16 322.91 C 90.02 321.58 85.28 320.43 84.81 316.44 C 85.54 313.04 87.54 310.02 89.23 307.01 C 90.14 304.90 92.79 305.72 94.55 305.34 C 94.07 303.22 93.59 301.10 93.24 298.96 Z" fill="#fbfbfb" opacity="1.00" stroke="#fbfbfb" stroke-width="0.25"/>
<path d="M 105.44 311.42 C 122.17 315.72 138.35 321.81 154.55 327.74 C 170.73 333.12 186.93 338.48 203.02 344.18 C 219.94 349.67 236.56 356.08 252.96 362.95 C 256.27 364.38 259.90 365.38 262.57 367.94 C 260.00 367.81 257.50 367.19 255.14 366.21 C 246.21 362.65 237.47 358.62 228.42 355.36 C 219.53 351.68 210.30 348.97 201.28 345.67 C 171.29 335.33 141.34 324.81 110.90 315.87 C 108.51 315.26 107.18 312.97 105.44 311.42 Z" fill="#fbfbfb" opacity="1.00" stroke="#fbfbfb" stroke-width="0.25"/>
<path d="M 109.89 317.95 C 147.50 329.62 184.57 342.95 221.83 355.67 C 229.61 358.62 237.32 361.76 245.04 364.85 C 251.14 367.25 257.11 370.20 263.66 371.14 C 265.24 373.31 266.89 375.63 269.45 376.71 C 275.81 379.69 282.41 382.15 288.75 385.19 C 290.10 385.61 290.74 386.84 291.24 388.06 C 279.30 384.05 267.35 379.96 255.73 375.06 C 236.23 367.03 216.34 360.02 196.77 352.18 C 180.39 345.61 163.71 339.86 147.17 333.70 C 135.60 329.64 124.35 324.66 112.51 321.39 C 111.63 320.24 110.75 319.10 109.89 317.95 Z" fill="#fbfbfb" opacity="1.00" stroke="#fbfbfb" stroke-width="0.25"/>
<path d="M 177.75 328.38 C 182.01 329.10 186.08 330.57 190.19 331.87 C 199.04 334.88 208.15 337.26 216.58 341.38 C 208.82 339.54 201.44 336.41 193.79 334.18 C 188.45 332.23 182.87 330.90 177.75 328.38 Z" fill="#050e2a" opacity="1.00" stroke="#050e2a" stroke-width="0.25"/>
<path d="M 140.88 334.90 C 140.53 334.59 140.32 334.20 140.26 333.73 C 142.40 335.80 145.54 335.92 148.24 336.84 C 174.48 345.74 200.14 356.24 226.03 366.08 C 245.42 373.45 264.51 381.66 284.28 387.96 C 286.71 388.77 289.23 389.24 291.75 389.69 C 291.62 390.10 291.37 390.93 291.24 391.34 C 273.38 387.46 256.61 380.00 239.60 373.51 C 206.71 360.59 173.51 348.45 140.88 334.90 Z" fill="#fbfbfb" opacity="1.00" stroke="#fbfbfb" stroke-width="0.25"/>
</svg>